<?xml version="1.0" encoding="iso-8859-1"?>
<!-- Generator: Adobe Illustrator 19.0.0, SVG Export Plug-In . SVG Version: 6.00 Build 0)  -->
<svg version="1.1" id="Capa_1" xmlns="http://www.w3.org/2000/svg" xmlns:xlink="http://www.w3.org/1999/xlink" x="0px" y="0px"
     viewBox="0 0 74.999 74.999" style="enable-background:new 0 0 74.999 74.999;" xml:space="preserve">
<g>
	<path d="M33.511,71.013c15.487,0,28.551-10.563,32.375-24.859h9.113L61.055,22L47.111,46.151h8.006
		c-3.44,8.563-11.826,14.628-21.605,14.628c-12.837,0-23.28-10.443-23.28-23.28c0-12.836,10.443-23.28,23.28-23.28
		c6.604,0,12.566,2.768,16.809,7.196l5.258-9.108c-5.898-5.176-13.619-8.32-22.065-8.32C15.034,3.987,0,19.019,0,37.5
		C-0.002,55.981,15.03,71.013,33.511,71.013z"/>
</g>

</svg>
